<svg width="118" height="47" viewBox="0 0 118 47" fill="none" xmlns="http://www.w3.org/2000/svg">
<path d="M26.636 6.252C26.708 3.984 25.304 2.58 23.216 2.436C21.2 2.256 19.472 3.408 19.184 5.676C18.428 11.796 14.108 15.432 9.32 16.44C7.484 16.836 6.548 18.24 6.728 19.968C6.908 21.732 8.384 22.776 10.148 22.74C14.864 22.632 20.048 19.644 23.324 15.216C27.608 15.144 31.1 18.024 31.82 22.776H39.128C38.48 13.776 32.216 9.564 26.168 9.384C26.456 8.376 26.6 7.332 26.636 6.252ZM9.176 29.184C6.98 29.184 6.152 30.66 6.152 32.1C6.152 33.576 7.016 35.016 9.176 35.016H36.824C38.984 35.016 39.848 33.576 39.848 32.1C39.848 30.66 39.02 29.184 36.824 29.184H26.672V24.324C26.672 22.02 24.872 21.012 23 21.012C21.092 21.012 19.328 21.984 19.328 24.324V29.184H9.176ZM51.44 27.852C50.612 27.852 50.432 27.708 50.432 26.88V6.792C50.432 4.416 48.884 3.372 46.904 3.372C44.96 3.372 43.304 4.38 43.304 6.792V28.356C43.304 32.496 44.456 33.936 48.776 33.936H61.916C63.968 33.936 64.616 32.28 64.616 30.876C64.616 29.508 64.004 27.852 61.916 27.852H51.44ZM66.704 35.736H73.832V20.796H75.02C77.18 20.796 77.864 19.14 77.864 17.664C77.864 16.224 77.216 14.532 75.02 14.532H73.832V5.424C73.832 3.156 72.104 1.932 70.268 1.932C68.396 1.932 66.704 3.12 66.704 5.424V35.736ZM110.876 35.736V5.496C110.876 3.156 109.184 1.932 107.276 1.932C105.368 1.932 103.676 3.156 103.676 5.496V35.736H110.876ZM81.428 28.32C79.628 28.5 78.728 29.688 78.656 31.2C78.548 33.36 80.348 34.332 82.112 34.296C91.292 34.116 98.6 29.112 98.6 16.296V8.556C98.6 5.208 97.016 3.3 92.948 3.3H82.292C80.096 3.3 79.088 4.956 79.088 6.432C79.088 7.944 80.132 9.528 82.292 9.528H90.5C91.076 9.528 91.4 9.924 91.4 10.428V16.26C91.4 25.116 87.512 27.744 81.428 28.32Z" fill="#2277D8"/>
</svg>
